<?xml version="1.0" encoding="utf-8" standalone="no"?>
<!DOCTYPE svg PUBLIC "-//W3C//DTD SVG 1.1//EN"
  "http://www.w3.org/Graphics/SVG/1.1/DTD/svg11.dtd">
<svg xmlns:xlink="http://www.w3.org/1999/xlink" width="10.91pt" height="13.525937pt" viewBox="0 0 10.91 13.525937" xmlns="http://www.w3.org/2000/svg" version="1.1">
 <metadata>
  <rdf:RDF xmlns:dc="http://purl.org/dc/elements/1.1/" xmlns:cc="http://creativecommons.org/ns#" xmlns:rdf="http://www.w3.org/1999/02/22-rdf-syntax-ns#">
   <cc:Work>
    <dc:type rdf:resource="http://purl.org/dc/dcmitype/StillImage"/>
    <dc:date>2026-05-13T02:20:14.396347</dc:date>
    <dc:format>image/svg+xml</dc:format>
    <dc:creator>
     <cc:Agent>
      <dc:title>Matplotlib v3.10.8, https://matplotlib.org/</dc:title>
     </cc:Agent>
    </dc:creator>
   </cc:Work>
  </rdf:RDF>
 </metadata>
 <defs>
  <style type="text/css">*{stroke-linejoin: round; stroke-linecap: butt}</style>
 </defs>
 <g id="figure_1">
  <g id="patch_1">
   <path d="M -0 13.525937 
L 10.91 13.525937 
L 10.91 0 
L -0 0 
L -0 13.525937 
z
" style="fill: none"/>
  </g>
  <g id="text_1">
   <!-- $T$ -->
   <g style="fill: #2d2d2c" transform="translate(1.44 9.798281) scale(0.11 -0.11)">
    <defs>
     <path id="Cmr10-54" d="M 1081 0 
L 1081 225 
Q 1403 225 1706 261 
Q 2009 297 2009 428 
L 2009 3944 
Q 2009 4081 1932 4114 
Q 1856 4147 1684 4147 
L 1416 4147 
Q 888 4147 666 3916 
Q 550 3800 500 3545 
Q 450 3291 416 2906 
L 231 2906 
L 353 4372 
L 4263 4372 
L 4384 2906 
L 4197 2906 
Q 4159 3319 4114 3561 
Q 4069 3803 3950 3916 
Q 3725 4147 3200 4147 
L 2931 4147 
Q 2816 4147 2752 4137 
Q 2688 4128 2647 4083 
Q 2606 4038 2606 3944 
L 2606 428 
Q 2606 297 2909 261 
Q 3213 225 3531 225 
L 3531 0 
L 1081 0 
z
" transform="scale(0.015625)"/>
    </defs>
    <use xlink:href="#Cmr10-54" transform="translate(0 0.6875)"/>
   </g>
  </g>
 </g>
</svg>
