<?xml version="1.0" encoding="utf-8" standalone="no"?>
<!DOCTYPE svg PUBLIC "-//W3C//DTD SVG 1.1//EN"
  "http://www.w3.org/Graphics/SVG/1.1/DTD/svg11.dtd">
<svg xmlns:xlink="http://www.w3.org/1999/xlink" width="123.005pt" height="30.88pt" viewBox="0 0 123.005 30.88" xmlns="http://www.w3.org/2000/svg" version="1.1">
 <metadata>
  <rdf:RDF xmlns:dc="http://purl.org/dc/elements/1.1/" xmlns:cc="http://creativecommons.org/ns#" xmlns:rdf="http://www.w3.org/1999/02/22-rdf-syntax-ns#">
   <cc:Work>
    <dc:type rdf:resource="http://purl.org/dc/dcmitype/StillImage"/>
    <dc:date>2026-05-13T02:20:12.292890</dc:date>
    <dc:format>image/svg+xml</dc:format>
    <dc:creator>
     <cc:Agent>
      <dc:title>Matplotlib v3.10.8, https://matplotlib.org/</dc:title>
     </cc:Agent>
    </dc:creator>
   </cc:Work>
  </rdf:RDF>
 </metadata>
 <defs>
  <style type="text/css">*{stroke-linejoin: round; stroke-linecap: butt}</style>
 </defs>
 <g id="figure_1">
  <g id="patch_1">
   <path d="M -0 30.88 
L 123.005 30.88 
L 123.005 -0 
L -0 -0 
L -0 30.88 
z
" style="fill: none"/>
  </g>
  <g id="text_1">
   <!-- $A_{SA} = \frac{P_{avg} \cdot \left(1 + \frac{f_{eclipse}}{f_{sun}\,\eta_{dis}}\right)}{S_{0}\,\eta_{cell}\,\cos\beta\,(1-D_{deg})}$ -->
   <g style="fill: #2d2d2c" transform="translate(1.44 20.815) scale(0.125 -0.125)">
    <defs>
     <path id="Cmr10-41" d="M 206 0 
L 206 225 
Q 778 225 909 603 
L 2253 4513 
Q 2272 4581 2356 4581 
L 2438 4581 
Q 2522 4581 2541 4513 
L 3944 428 
Q 4003 294 4170 259 
Q 4338 225 4588 225 
L 4588 0 
L 2803 0 
L 2803 225 
Q 3334 225 3334 397 
L 3334 428 
L 2988 1428 
L 1434 1428 
L 1147 603 
Q 1141 581 1141 538 
Q 1141 378 1292 301 
Q 1444 225 1619 225 
L 1619 0 
L 206 0 
z
M 1509 1650 
L 2913 1650 
L 2209 3694 
L 1509 1650 
z
" transform="scale(0.015625)"/>
     <path id="Cmr10-53" d="M 359 -91 
L 359 1403 
Q 359 1453 416 1453 
L 494 1453 
Q 513 1453 528 1437 
Q 544 1422 544 1403 
Q 544 775 933 429 
Q 1322 84 1953 84 
Q 2175 84 2362 212 
Q 2550 341 2654 548 
Q 2759 756 2759 978 
Q 2759 1172 2681 1355 
Q 2603 1538 2456 1672 
Q 2309 1806 2125 1850 
L 1294 2053 
Q 881 2163 620 2502 
Q 359 2841 359 3263 
Q 359 3594 528 3884 
Q 697 4175 983 4344 
Q 1269 4513 1600 4513 
Q 2241 4513 2619 4078 
L 2881 4494 
Q 2900 4513 2925 4513 
L 2969 4513 
Q 2988 4513 3005 4498 
Q 3022 4484 3022 4459 
L 3022 2975 
Q 3022 2919 2969 2919 
L 2894 2919 
Q 2834 2919 2834 2975 
Q 2834 3138 2779 3331 
Q 2725 3525 2628 3703 
Q 2531 3881 2419 3994 
Q 2109 4306 1600 4306 
Q 1381 4306 1197 4195 
Q 1013 4084 903 3893 
Q 794 3703 794 3494 
Q 794 3219 964 2995 
Q 1134 2772 1409 2700 
L 2241 2497 
Q 2447 2447 2630 2317 
Q 2813 2188 2934 2016 
Q 3056 1844 3125 1633 
Q 3194 1422 3194 1197 
Q 3194 850 3034 542 
Q 2875 234 2586 46 
Q 2297 -141 1953 -141 
Q 1741 -141 1519 -94 
Q 1297 -47 1109 50 
Q 922 147 769 300 
L 500 -122 
Q 481 -141 453 -141 
L 416 -141 
Q 359 -141 359 -91 
z
" transform="scale(0.015625)"/>
     <path id="Cmr10-3d" d="M 481 850 
Q 428 850 393 890 
Q 359 931 359 978 
Q 359 1031 393 1068 
Q 428 1106 481 1106 
L 4500 1106 
Q 4547 1106 4581 1068 
Q 4616 1031 4616 978 
Q 4616 931 4581 890 
Q 4547 850 4500 850 
L 481 850 
z
M 481 2094 
Q 428 2094 393 2131 
Q 359 2169 359 2222 
Q 359 2269 393 2309 
Q 428 2350 481 2350 
L 4500 2350 
Q 4547 2350 4581 2309 
Q 4616 2269 4616 2222 
Q 4616 2169 4581 2131 
Q 4547 2094 4500 2094 
L 481 2094 
z
" transform="scale(0.015625)"/>
     <path id="Cmr10-50" d="M 213 0 
L 213 225 
Q 872 225 872 428 
L 872 3944 
Q 872 4147 213 4147 
L 213 4372 
L 2491 4372 
Q 2841 4372 3191 4228 
Q 3541 4084 3767 3809 
Q 3994 3534 3994 3169 
Q 3994 2813 3766 2544 
Q 3538 2275 3191 2136 
Q 2844 1997 2491 1997 
L 1466 1997 
L 1466 428 
Q 1466 225 2125 225 
L 2125 0 
L 213 0 
z
M 1447 2188 
L 2316 2188 
Q 2669 2188 2887 2289 
Q 3106 2391 3207 2605 
Q 3309 2819 3309 3169 
Q 3309 3691 3079 3919 
Q 2850 4147 2316 4147 
L 1772 4147 
Q 1656 4147 1592 4137 
Q 1528 4128 1487 4083 
Q 1447 4038 1447 3944 
L 1447 2188 
z
" transform="scale(0.015625)"/>
     <path id="Cmr10-61" d="M 256 628 
Q 256 1009 556 1248 
Q 856 1488 1276 1586 
Q 1697 1684 2075 1684 
L 2075 1947 
Q 2075 2131 1994 2304 
Q 1913 2478 1759 2589 
Q 1606 2700 1422 2700 
Q 997 2700 775 2509 
Q 897 2509 976 2417 
Q 1056 2325 1056 2203 
Q 1056 2075 965 1984 
Q 875 1894 750 1894 
Q 622 1894 531 1984 
Q 441 2075 441 2203 
Q 441 2541 747 2705 
Q 1053 2869 1422 2869 
Q 1681 2869 1943 2758 
Q 2206 2647 2373 2440 
Q 2541 2234 2541 1959 
L 2541 519 
Q 2541 394 2594 289 
Q 2647 184 2759 184 
Q 2866 184 2917 290 
Q 2969 397 2969 519 
L 2969 928 
L 3156 928 
L 3156 519 
Q 3156 375 3081 245 
Q 3006 116 2879 39 
Q 2753 -38 2606 -38 
Q 2419 -38 2283 107 
Q 2147 253 2131 453 
Q 2013 213 1781 70 
Q 1550 -72 1288 -72 
Q 1044 -72 808 0 
Q 572 72 414 226 
Q 256 381 256 628 
z
M 775 628 
Q 775 403 940 250 
Q 1106 97 1331 97 
Q 1538 97 1706 200 
Q 1875 303 1975 481 
Q 2075 659 2075 856 
L 2075 1522 
Q 1784 1522 1479 1426 
Q 1175 1331 975 1128 
Q 775 925 775 628 
z
" transform="scale(0.015625)"/>
     <path id="Cmr10-76" d="M 1563 0 
L 628 2350 
Q 569 2469 445 2501 
Q 322 2534 122 2534 
L 122 2759 
L 1466 2759 
L 1466 2534 
Q 1106 2534 1106 2381 
Q 1106 2356 1113 2344 
L 1831 538 
L 2478 2169 
Q 2497 2219 2497 2272 
Q 2497 2394 2405 2464 
Q 2313 2534 2188 2534 
L 2188 2759 
L 3250 2759 
L 3250 2534 
Q 3053 2534 2904 2443 
Q 2756 2353 2675 2175 
L 1813 0 
Q 1788 -72 1709 -72 
L 1663 -72 
Q 1584 -72 1563 0 
z
" transform="scale(0.015625)"/>
     <path id="Cmr10-67" d="M 178 -500 
Q 178 -272 343 -101 
Q 509 69 738 141 
Q 609 238 542 384 
Q 475 531 475 697 
Q 475 997 666 1228 
Q 372 1516 372 1888 
Q 372 2088 458 2263 
Q 544 2438 697 2566 
Q 850 2694 1037 2761 
Q 1225 2828 1422 2828 
Q 1803 2828 2106 2606 
Q 2238 2747 2417 2823 
Q 2597 2900 2791 2900 
Q 2928 2900 3015 2801 
Q 3103 2703 3103 2566 
Q 3103 2488 3043 2428 
Q 2984 2369 2906 2369 
Q 2825 2369 2765 2428 
Q 2706 2488 2706 2566 
Q 2706 2684 2784 2731 
Q 2453 2731 2216 2503 
Q 2331 2388 2401 2220 
Q 2472 2053 2472 1888 
Q 2472 1616 2322 1398 
Q 2172 1181 1926 1061 
Q 1681 941 1422 941 
Q 1072 941 781 1131 
Q 691 1006 691 850 
Q 691 681 802 554 
Q 913 428 1081 428 
L 1606 428 
Q 1988 428 2294 359 
Q 2600 291 2808 84 
Q 3016 -122 3016 -500 
Q 3016 -781 2778 -967 
Q 2541 -1153 2211 -1236 
Q 1881 -1319 1600 -1319 
Q 1316 -1319 984 -1236 
Q 653 -1153 415 -967 
Q 178 -781 178 -500 
z
M 538 -500 
Q 538 -716 713 -861 
Q 888 -1006 1134 -1076 
Q 1381 -1147 1600 -1147 
Q 1816 -1147 2062 -1076 
Q 2309 -1006 2482 -861 
Q 2656 -716 2656 -500 
Q 2656 -166 2350 -67 
Q 2044 31 1606 31 
L 1081 31 
Q 934 31 811 -39 
Q 688 -109 613 -236 
Q 538 -363 538 -500 
z
M 1422 1113 
Q 1966 1113 1966 1888 
Q 1966 2222 1850 2439 
Q 1734 2656 1422 2656 
Q 1109 2656 993 2439 
Q 878 2222 878 1888 
Q 878 1675 922 1503 
Q 966 1331 1084 1222 
Q 1203 1113 1422 1113 
z
" transform="scale(0.015625)"/>
     <path id="Cmsy10-a2" d="M 538 1600 
Q 538 1691 584 1772 
Q 631 1853 714 1903 
Q 797 1953 891 1953 
Q 981 1953 1064 1903 
Q 1147 1853 1194 1772 
Q 1241 1691 1241 1600 
Q 1241 1456 1139 1351 
Q 1038 1247 891 1247 
Q 747 1247 642 1351 
Q 538 1456 538 1600 
z
" transform="scale(0.015625)"/>
     <path id="Cmex10-b3" d="M 3359 -11244 
Q 2763 -10725 2339 -10065 
Q 1916 -9406 1655 -8656 
Q 1394 -7906 1273 -7115 
Q 1153 -6325 1153 -5503 
Q 1153 -4678 1273 -3886 
Q 1394 -3094 1655 -2344 
Q 1916 -1594 2339 -934 
Q 2763 -275 3359 244 
Q 3359 256 3391 256 
L 3541 256 
Q 3559 256 3575 236 
Q 3591 216 3591 197 
Q 3591 172 3578 159 
Q 3031 -388 2662 -1041 
Q 2294 -1694 2072 -2439 
Q 1850 -3184 1756 -3948 
Q 1663 -4713 1663 -5509 
Q 1663 -6303 1756 -7070 
Q 1850 -7838 2072 -8575 
Q 2294 -9313 2667 -9969 
Q 3041 -10625 3578 -11163 
Q 3591 -11175 3591 -11200 
Q 3591 -11216 3573 -11236 
Q 3556 -11256 3541 -11256 
L 3391 -11256 
Q 3359 -11256 3359 -11244 
z
" transform="scale(0.015625)"/>
     <path id="Cmr10-31" d="M 594 0 
L 594 225 
Q 1394 225 1394 428 
L 1394 3788 
Q 1063 3628 556 3628 
L 556 3853 
Q 1341 3853 1741 4263 
L 1831 4263 
Q 1853 4263 1873 4245 
Q 1894 4228 1894 4206 
L 1894 428 
Q 1894 225 2694 225 
L 2694 0 
L 594 0 
z
" transform="scale(0.015625)"/>
     <path id="Cmr10-2b" d="M 481 1472 
Q 428 1472 393 1512 
Q 359 1553 359 1600 
Q 359 1647 393 1687 
Q 428 1728 481 1728 
L 2363 1728 
L 2363 3616 
Q 2363 3666 2400 3698 
Q 2438 3731 2491 3731 
Q 2538 3731 2578 3698 
Q 2619 3666 2619 3616 
L 2619 1728 
L 4500 1728 
Q 4547 1728 4581 1687 
Q 4616 1647 4616 1600 
Q 4616 1553 4581 1512 
Q 4547 1472 4500 1472 
L 2619 1472 
L 2619 -416 
Q 2619 -466 2578 -498 
Q 2538 -531 2491 -531 
Q 2438 -531 2400 -498 
Q 2363 -466 2363 -416 
L 2363 1472 
L 481 1472 
z
" transform="scale(0.015625)"/>
     <path id="Cmr10-66" d="M 206 0 
L 206 225 
Q 422 225 562 259 
Q 703 294 703 428 
L 703 2534 
L 213 2534 
L 213 2759 
L 703 2759 
L 703 3525 
Q 703 3731 789 3911 
Q 875 4091 1020 4225 
Q 1166 4359 1355 4436 
Q 1544 4513 1747 4513 
Q 1963 4513 2136 4384 
Q 2309 4256 2309 4044 
Q 2309 3922 2226 3839 
Q 2144 3756 2022 3756 
Q 1900 3756 1814 3839 
Q 1728 3922 1728 4044 
Q 1728 4244 1900 4313 
Q 1797 4347 1716 4347 
Q 1528 4347 1395 4214 
Q 1263 4081 1197 3890 
Q 1131 3700 1131 3513 
L 1131 2759 
L 1869 2759 
L 1869 2534 
L 1153 2534 
L 1153 428 
Q 1153 297 1340 261 
Q 1528 225 1772 225 
L 1772 0 
L 206 0 
z
" transform="scale(0.015625)"/>
     <path id="Cmr10-65" d="M 1594 -72 
Q 1203 -72 876 133 
Q 550 338 364 680 
Q 178 1022 178 1403 
Q 178 1778 348 2115 
Q 519 2453 823 2661 
Q 1128 2869 1503 2869 
Q 1797 2869 2014 2770 
Q 2231 2672 2372 2497 
Q 2513 2322 2584 2084 
Q 2656 1847 2656 1563 
Q 2656 1478 2591 1478 
L 738 1478 
L 738 1409 
Q 738 878 952 497 
Q 1166 116 1650 116 
Q 1847 116 2014 203 
Q 2181 291 2304 447 
Q 2428 603 2472 781 
Q 2478 803 2495 820 
Q 2513 838 2534 838 
L 2591 838 
Q 2656 838 2656 756 
Q 2566 394 2266 161 
Q 1966 -72 1594 -72 
z
M 744 1638 
L 2203 1638 
Q 2203 1878 2136 2125 
Q 2069 2372 1912 2536 
Q 1756 2700 1503 2700 
Q 1141 2700 942 2361 
Q 744 2022 744 1638 
z
" transform="scale(0.015625)"/>
     <path id="Cmr10-63" d="M 1594 -72 
Q 1206 -72 890 129 
Q 575 331 394 667 
Q 213 1003 213 1381 
Q 213 1759 392 2106 
Q 572 2453 889 2661 
Q 1206 2869 1594 2869 
Q 1969 2869 2276 2722 
Q 2584 2575 2584 2241 
Q 2584 2116 2495 2023 
Q 2406 1931 2278 1931 
Q 2150 1931 2061 2023 
Q 1972 2116 1972 2241 
Q 1972 2353 2044 2436 
Q 2116 2519 2222 2541 
Q 2000 2681 1600 2681 
Q 1294 2681 1106 2478 
Q 919 2275 844 1975 
Q 769 1675 769 1381 
Q 769 1072 861 783 
Q 953 494 1158 305 
Q 1363 116 1672 116 
Q 1975 116 2187 302 
Q 2400 488 2478 788 
Q 2478 825 2528 825 
L 2606 825 
Q 2625 825 2640 808 
Q 2656 791 2656 769 
L 2656 750 
Q 2559 372 2271 150 
Q 1984 -72 1594 -72 
z
" transform="scale(0.015625)"/>
     <path id="Cmr10-6c" d="M 197 0 
L 197 225 
Q 416 225 556 259 
Q 697 294 697 428 
L 697 3788 
Q 697 3959 645 4036 
Q 594 4113 497 4130 
Q 400 4147 197 4147 
L 197 4372 
L 1147 4441 
L 1147 428 
Q 1147 294 1287 259 
Q 1428 225 1644 225 
L 1644 0 
L 197 0 
z
" transform="scale(0.015625)"/>
     <path id="Cmr10-69" d="M 197 0 
L 197 225 
Q 416 225 556 259 
Q 697 294 697 428 
L 697 2175 
Q 697 2422 601 2478 
Q 506 2534 225 2534 
L 225 2759 
L 1147 2828 
L 1147 428 
Q 1147 294 1269 259 
Q 1391 225 1594 225 
L 1594 0 
L 197 0 
z
M 469 3928 
Q 469 4069 575 4175 
Q 681 4281 819 4281 
Q 909 4281 993 4234 
Q 1078 4188 1125 4103 
Q 1172 4019 1172 3928 
Q 1172 3791 1065 3684 
Q 959 3578 819 3578 
Q 681 3578 575 3684 
Q 469 3791 469 3928 
z
" transform="scale(0.015625)"/>
     <path id="Cmr10-70" d="M 166 -1241 
L 166 -1019 
Q 384 -1019 525 -981 
Q 666 -944 666 -813 
L 666 2272 
Q 666 2447 541 2490 
Q 416 2534 166 2534 
L 166 2759 
L 1113 2828 
L 1113 2431 
Q 1288 2625 1520 2726 
Q 1753 2828 2016 2828 
Q 2394 2828 2697 2623 
Q 3000 2419 3170 2086 
Q 3341 1753 3341 1381 
Q 3341 994 3152 659 
Q 2963 325 2636 126 
Q 2309 -72 1919 -72 
Q 1453 -72 1131 306 
L 1131 -813 
Q 1131 -944 1273 -981 
Q 1416 -1019 1631 -1019 
L 1631 -1241 
L 166 -1241 
z
M 1131 622 
Q 1244 394 1444 245 
Q 1644 97 1881 97 
Q 2103 97 2273 215 
Q 2444 334 2559 534 
Q 2675 734 2729 954 
Q 2784 1175 2784 1381 
Q 2784 1638 2692 1936 
Q 2600 2234 2411 2439 
Q 2222 2644 1953 2644 
Q 1694 2644 1476 2511 
Q 1259 2378 1131 2150 
L 1131 622 
z
" transform="scale(0.015625)"/>
     <path id="Cmr10-73" d="M 213 -19 
L 213 1025 
Q 213 1075 269 1075 
L 347 1075 
Q 384 1075 397 1025 
Q 575 97 1259 97 
Q 1563 97 1767 234 
Q 1972 372 1972 659 
Q 1972 866 1812 1011 
Q 1653 1156 1434 1209 
L 1006 1294 
Q 791 1341 614 1437 
Q 438 1534 325 1695 
Q 213 1856 213 2069 
Q 213 2350 361 2529 
Q 509 2709 746 2789 
Q 984 2869 1259 2869 
Q 1588 2869 1831 2694 
L 2016 2853 
Q 2016 2869 2047 2869 
L 2094 2869 
Q 2113 2869 2128 2851 
Q 2144 2834 2144 2816 
L 2144 1978 
Q 2144 1919 2094 1919 
L 2016 1919 
Q 1959 1919 1959 1978 
Q 1959 2313 1773 2516 
Q 1588 2719 1253 2719 
Q 966 2719 755 2612 
Q 544 2506 544 2247 
Q 544 2069 695 1955 
Q 847 1841 1050 1791 
L 1484 1709 
Q 1703 1659 1892 1540 
Q 2081 1422 2192 1240 
Q 2303 1059 2303 831 
Q 2303 600 2223 429 
Q 2144 259 2001 146 
Q 1859 34 1665 -19 
Q 1472 -72 1259 -72 
Q 859 -72 575 197 
L 341 -56 
Q 341 -72 306 -72 
L 269 -72 
Q 213 -72 213 -19 
z
" transform="scale(0.015625)"/>
     <path id="Cmr10-75" d="M 691 763 
L 691 2175 
Q 691 2347 639 2423 
Q 588 2500 491 2517 
Q 394 2534 191 2534 
L 191 2759 
L 1159 2828 
L 1159 763 
Q 1159 513 1195 373 
Q 1231 234 1348 165 
Q 1466 97 1722 97 
Q 2066 97 2269 384 
Q 2472 672 2472 1038 
L 2472 2175 
Q 2472 2347 2419 2423 
Q 2366 2500 2270 2517 
Q 2175 2534 1972 2534 
L 1972 2759 
L 2938 2828 
L 2938 581 
Q 2938 413 2989 336 
Q 3041 259 3137 242 
Q 3234 225 3438 225 
L 3438 0 
L 2491 -72 
L 2491 469 
Q 2372 228 2159 78 
Q 1947 -72 1691 -72 
Q 1231 -72 961 123 
Q 691 319 691 763 
z
" transform="scale(0.015625)"/>
     <path id="Cmr10-6e" d="M 191 0 
L 191 225 
Q 409 225 550 259 
Q 691 294 691 428 
L 691 2175 
Q 691 2347 639 2423 
Q 588 2500 491 2517 
Q 394 2534 191 2534 
L 191 2759 
L 1119 2828 
L 1119 2203 
Q 1247 2478 1498 2653 
Q 1750 2828 2047 2828 
Q 2491 2828 2714 2615 
Q 2938 2403 2938 1966 
L 2938 428 
Q 2938 294 3078 259 
Q 3219 225 3438 225 
L 3438 0 
L 1972 0 
L 1972 225 
Q 2191 225 2331 259 
Q 2472 294 2472 428 
L 2472 1947 
Q 2472 2259 2381 2461 
Q 2291 2663 2009 2663 
Q 1638 2663 1398 2366 
Q 1159 2069 1159 1691 
L 1159 428 
Q 1159 294 1300 259 
Q 1441 225 1656 225 
L 1656 0 
L 191 0 
z
" transform="scale(0.015625)"/>
     <path id="Cmmi10-b4" d="M 684 -72 
Q 606 -72 550 -22 
Q 494 28 494 109 
Q 494 147 500 166 
L 978 2075 
Q 1025 2253 1025 2388 
Q 1025 2663 838 2663 
Q 638 2663 541 2423 
Q 444 2184 353 1819 
Q 353 1800 334 1789 
Q 316 1778 300 1778 
L 225 1778 
Q 203 1778 187 1801 
Q 172 1825 172 1844 
Q 241 2122 305 2315 
Q 369 2509 505 2668 
Q 641 2828 844 2828 
Q 1081 2828 1267 2678 
Q 1453 2528 1453 2291 
Q 1641 2541 1894 2684 
Q 2147 2828 2444 2828 
Q 2778 2828 2979 2648 
Q 3181 2469 3181 2138 
Q 3181 1947 3138 1784 
L 2394 -1178 
Q 2375 -1269 2300 -1325 
Q 2225 -1381 2131 -1381 
Q 2053 -1381 1997 -1332 
Q 1941 -1284 1941 -1203 
Q 1941 -1166 1947 -1153 
L 2681 1797 
Q 2747 2059 2747 2234 
Q 2747 2413 2672 2538 
Q 2597 2663 2431 2663 
Q 1803 2663 1388 1888 
L 953 141 
Q 931 53 854 -9 
Q 778 -72 684 -72 
z
" transform="scale(0.015625)"/>
     <path id="Cmr10-64" d="M 1563 -72 
Q 1184 -72 871 133 
Q 559 338 386 672 
Q 213 1006 213 1381 
Q 213 1769 402 2101 
Q 591 2434 916 2631 
Q 1241 2828 1631 2828 
Q 1866 2828 2075 2729 
Q 2284 2631 2438 2456 
L 2438 3788 
Q 2438 3959 2386 4036 
Q 2334 4113 2239 4130 
Q 2144 4147 1941 4147 
L 1941 4372 
L 2888 4441 
L 2888 581 
Q 2888 413 2939 336 
Q 2991 259 3086 242 
Q 3181 225 3384 225 
L 3384 0 
L 2419 -72 
L 2419 331 
Q 2253 141 2025 34 
Q 1797 -72 1563 -72 
z
M 909 556 
Q 1019 347 1201 222 
Q 1384 97 1600 97 
Q 1866 97 2087 250 
Q 2309 403 2419 647 
L 2419 2181 
Q 2344 2322 2230 2433 
Q 2116 2544 1973 2603 
Q 1831 2663 1672 2663 
Q 1338 2663 1134 2473 
Q 931 2284 850 1990 
Q 769 1697 769 1375 
Q 769 1119 795 928 
Q 822 738 909 556 
z
" transform="scale(0.015625)"/>
     <path id="Cmex10-b4" d="M 281 -11256 
Q 225 -11256 225 -11200 
Q 225 -11175 238 -11163 
Q 781 -10619 1156 -9955 
Q 1531 -9291 1747 -8566 
Q 1963 -7841 2056 -7075 
Q 2150 -6309 2150 -5497 
Q 2150 -4666 2054 -3906 
Q 1959 -3147 1743 -2425 
Q 1528 -1703 1154 -1039 
Q 781 -375 238 159 
Q 225 172 225 197 
Q 225 256 281 256 
L 428 256 
Q 447 256 459 244 
Q 1050 -266 1478 -933 
Q 1906 -1600 2167 -2348 
Q 2428 -3097 2545 -3887 
Q 2663 -4678 2663 -5503 
Q 2663 -6325 2545 -7114 
Q 2428 -7903 2167 -8653 
Q 1906 -9403 1478 -10068 
Q 1050 -10734 459 -11244 
Q 447 -11256 428 -11256 
L 281 -11256 
z
" transform="scale(0.015625)"/>
     <path id="Cmr10-30" d="M 1600 -141 
Q 816 -141 533 504 
Q 250 1150 250 2041 
Q 250 2597 351 3087 
Q 453 3578 754 3920 
Q 1056 4263 1600 4263 
Q 2022 4263 2290 4056 
Q 2559 3850 2700 3523 
Q 2841 3197 2892 2823 
Q 2944 2450 2944 2041 
Q 2944 1491 2842 1011 
Q 2741 531 2444 195 
Q 2147 -141 1600 -141 
z
M 1600 25 
Q 1956 25 2131 390 
Q 2306 756 2347 1200 
Q 2388 1644 2388 2144 
Q 2388 2625 2347 3031 
Q 2306 3438 2132 3767 
Q 1959 4097 1600 4097 
Q 1238 4097 1063 3765 
Q 888 3434 847 3029 
Q 806 2625 806 2144 
Q 806 1788 823 1472 
Q 841 1156 916 820 
Q 991 484 1158 254 
Q 1325 25 1600 25 
z
" transform="scale(0.015625)"/>
     <path id="Cmr10-6f" d="M 1600 -72 
Q 1216 -72 887 123 
Q 559 319 368 647 
Q 178 975 178 1363 
Q 178 1656 283 1928 
Q 388 2200 583 2414 
Q 778 2628 1037 2748 
Q 1297 2869 1600 2869 
Q 1994 2869 2317 2661 
Q 2641 2453 2828 2104 
Q 3016 1756 3016 1363 
Q 3016 978 2825 648 
Q 2634 319 2307 123 
Q 1981 -72 1600 -72 
z
M 1600 116 
Q 2113 116 2284 487 
Q 2456 859 2456 1434 
Q 2456 1756 2422 1967 
Q 2388 2178 2272 2350 
Q 2200 2456 2089 2536 
Q 1978 2616 1854 2658 
Q 1731 2700 1600 2700 
Q 1400 2700 1220 2609 
Q 1041 2519 922 2350 
Q 803 2169 770 1951 
Q 738 1734 738 1434 
Q 738 1075 800 789 
Q 863 503 1052 309 
Q 1241 116 1600 116 
z
" transform="scale(0.015625)"/>
     <path id="Cmmi10-af" d="M 172 -1241 
Q 153 -1241 137 -1219 
Q 122 -1197 122 -1178 
L 1106 2778 
Q 1191 3097 1353 3397 
Q 1516 3697 1761 3955 
Q 2006 4213 2300 4363 
Q 2594 4513 2925 4513 
Q 3163 4513 3355 4408 
Q 3547 4303 3658 4114 
Q 3769 3925 3769 3688 
Q 3769 3459 3681 3251 
Q 3594 3044 3437 2864 
Q 3281 2684 3103 2572 
Q 3206 2506 3287 2404 
Q 3369 2303 3419 2192 
Q 3469 2081 3497 1945 
Q 3525 1809 3525 1691 
Q 3525 1363 3384 1044 
Q 3244 725 3001 465 
Q 2759 206 2446 54 
Q 2134 -97 1806 -97 
Q 1447 -97 1159 100 
Q 872 297 763 634 
L 300 -1203 
Q 300 -1241 250 -1241 
L 172 -1241 
z
M 1819 78 
Q 2106 78 2339 267 
Q 2572 456 2723 742 
Q 2875 1028 2954 1348 
Q 3034 1669 3034 1931 
Q 3034 2256 2847 2444 
Q 2628 2363 2419 2363 
Q 1913 2363 1913 2534 
Q 1913 2759 2491 2759 
Q 2697 2759 2869 2694 
Q 3006 2800 3118 3006 
Q 3231 3213 3289 3438 
Q 3347 3663 3347 3859 
Q 3347 4069 3236 4208 
Q 3125 4347 2913 4347 
Q 2522 4347 2186 4106 
Q 1850 3866 1619 3498 
Q 1388 3131 1288 2741 
L 934 1325 
Q 900 1178 891 997 
Q 891 597 1153 337 
Q 1416 78 1819 78 
z
M 2106 2553 
Q 2203 2528 2425 2528 
Q 2534 2528 2644 2566 
Q 2638 2572 2619 2572 
Q 2550 2591 2472 2591 
Q 2181 2591 2106 2553 
z
" transform="scale(0.015625)"/>
     <path id="Cmr10-28" d="M 1984 -1588 
Q 1628 -1306 1370 -942 
Q 1113 -578 948 -165 
Q 784 247 703 697 
Q 622 1147 622 1600 
Q 622 2059 703 2509 
Q 784 2959 951 3375 
Q 1119 3791 1378 4153 
Q 1638 4516 1984 4788 
Q 1984 4800 2016 4800 
L 2075 4800 
Q 2094 4800 2109 4783 
Q 2125 4766 2125 4744 
Q 2125 4716 2113 4703 
Q 1800 4397 1592 4047 
Q 1384 3697 1257 3301 
Q 1131 2906 1075 2482 
Q 1019 2059 1019 1600 
Q 1019 -434 2106 -1491 
Q 2125 -1509 2125 -1544 
Q 2125 -1559 2108 -1579 
Q 2091 -1600 2075 -1600 
L 2016 -1600 
Q 1984 -1600 1984 -1588 
z
" transform="scale(0.015625)"/>
     <path id="Cmsy10-a1" d="M 653 1472 
Q 600 1472 565 1512 
Q 531 1553 531 1600 
Q 531 1647 565 1687 
Q 600 1728 653 1728 
L 4325 1728 
Q 4375 1728 4408 1687 
Q 4441 1647 4441 1600 
Q 4441 1553 4408 1512 
Q 4375 1472 4325 1472 
L 653 1472 
z
" transform="scale(0.015625)"/>
     <path id="Cmr10-44" d="M 213 0 
L 213 225 
Q 872 225 872 428 
L 872 3944 
Q 872 4147 213 4147 
L 213 4372 
L 2572 4372 
Q 3009 4372 3371 4183 
Q 3734 3994 3990 3678 
Q 4247 3363 4386 2963 
Q 4525 2563 4525 2144 
Q 4525 1738 4384 1355 
Q 4244 972 3980 664 
Q 3716 356 3355 178 
Q 2994 0 2572 0 
L 213 0 
z
M 1447 428 
Q 1447 291 1525 258 
Q 1603 225 1772 225 
L 2406 225 
Q 2734 225 3029 367 
Q 3325 509 3519 763 
Q 3722 1031 3790 1364 
Q 3859 1697 3859 2144 
Q 3859 2609 3790 2959 
Q 3722 3309 3519 3584 
Q 3328 3856 3034 4001 
Q 2741 4147 2406 4147 
L 1772 4147 
Q 1656 4147 1592 4137 
Q 1528 4128 1487 4083 
Q 1447 4038 1447 3944 
L 1447 428 
z
" transform="scale(0.015625)"/>
     <path id="Cmr10-29" d="M 416 -1600 
Q 359 -1600 359 -1544 
Q 359 -1516 372 -1503 
Q 1466 -434 1466 1600 
Q 1466 3634 384 4691 
Q 359 4706 359 4744 
Q 359 4766 376 4783 
Q 394 4800 416 4800 
L 475 4800 
Q 494 4800 506 4788 
Q 966 4425 1272 3906 
Q 1578 3388 1720 2800 
Q 1863 2213 1863 1600 
Q 1863 1147 1786 708 
Q 1709 269 1542 -157 
Q 1375 -584 1119 -945 
Q 863 -1306 506 -1588 
Q 494 -1600 475 -1600 
L 416 -1600 
z
" transform="scale(0.015625)"/>
    </defs>
    <use xlink:href="#Cmr10-41" transform="translate(0 0.764063)"/>
    <use xlink:href="#Cmr10-53" transform="translate(79.5675 -16.635937) scale(0.7)"/>
    <use xlink:href="#Cmr10-41" transform="translate(118.429805 -16.635937) scale(0.7)"/>
    <use xlink:href="#Cmr10-3d" transform="translate(195.013398 0.764063)"/>
    <use xlink:href="#Cmr10-50" transform="translate(358.257539 79.015) scale(0.7)"/>
    <use xlink:href="#Cmr10-61" transform="translate(409.067094 66.835) scale(0.49)"/>
    <use xlink:href="#Cmr10-76" transform="translate(433.567094 66.835) scale(0.49)"/>
    <use xlink:href="#Cmr10-67" transform="translate(459.383012 66.835) scale(0.49)"/>
    <use xlink:href="#Cmsy10-a2" transform="translate(500.741527 79.015) scale(0.7)"/>
    <use xlink:href="#Cmex10-b3" transform="translate(532.412426 152.388281) scale(0.648954)"/>
    <use xlink:href="#Cmr10-31" transform="translate(571.163956 79.015) scale(0.7)"/>
    <use xlink:href="#Cmr10-2b" transform="translate(618.454972 79.015) scale(0.7)"/>
    <use xlink:href="#Cmr10-66" transform="translate(701.12587 120.441984) scale(0.49)"/>
    <use xlink:href="#Cmr10-65" transform="translate(718.317559 111.915984) scale(0.343)"/>
    <use xlink:href="#Cmr10-63" transform="translate(733.541533 111.915984) scale(0.343)"/>
    <use xlink:href="#Cmr10-6c" transform="translate(748.765508 111.915984) scale(0.343)"/>
    <use xlink:href="#Cmr10-69" transform="translate(758.26165 111.915984) scale(0.343)"/>
    <use xlink:href="#Cmr10-70" transform="translate(767.757793 111.915984) scale(0.343)"/>
    <use xlink:href="#Cmr10-73" transform="translate(786.800322 111.915984) scale(0.343)"/>
    <use xlink:href="#Cmr10-65" transform="translate(800.315996 111.915984) scale(0.343)"/>
    <use xlink:href="#Cmr10-66" transform="translate(685.12587 48.837344) scale(0.49)"/>
    <use xlink:href="#Cmr10-73" transform="translate(702.317559 40.311344) scale(0.343)"/>
    <use xlink:href="#Cmr10-75" transform="translate(715.833232 40.311344) scale(0.343)"/>
    <use xlink:href="#Cmr10-6e" transform="translate(734.875762 40.311344) scale(0.343)"/>
    <use xlink:href="#Cmmi10-b4" transform="translate(764.285444 48.837344) scale(0.49)"/>
    <use xlink:href="#Cmr10-64" transform="translate(788.594037 40.311344) scale(0.343)"/>
    <use xlink:href="#Cmr10-69" transform="translate(807.636567 40.311344) scale(0.343)"/>
    <use xlink:href="#Cmr10-73" transform="translate(817.132709 40.311344) scale(0.343)"/>
    <use xlink:href="#Cmex10-b4" transform="translate(842.595633 152.388281) scale(0.648954)"/>
    <use xlink:href="#Cmr10-53" transform="translate(290.257539 -45.485937) scale(0.7)"/>
    <use xlink:href="#Cmr10-30" transform="translate(332.317094 -57.665937) scale(0.49)"/>
    <use xlink:href="#Cmmi10-b4" transform="translate(371.627312 -45.485937) scale(0.7)"/>
    <use xlink:href="#Cmr10-63" transform="translate(406.353874 -57.665937) scale(0.49)"/>
    <use xlink:href="#Cmr10-65" transform="translate(428.102409 -57.665937) scale(0.49)"/>
    <use xlink:href="#Cmr10-6c" transform="translate(449.850944 -57.665937) scale(0.49)"/>
    <use xlink:href="#Cmr10-6c" transform="translate(463.416862 -57.665937) scale(0.49)"/>
    <use xlink:href="#Cmr10-63" transform="translate(491.792998 -45.485937) scale(0.7)"/>
    <use xlink:href="#Cmr10-6f" transform="translate(522.862334 -45.485937) scale(0.7)"/>
    <use xlink:href="#Cmr10-73" transform="translate(557.862334 -45.485937) scale(0.7)"/>
    <use xlink:href="#Cmmi10-af" transform="translate(595.68806 -45.485937) scale(0.7)"/>
    <use xlink:href="#Cmr10-28" transform="translate(645.476676 -45.485937) scale(0.7)"/>
    <use xlink:href="#Cmr10-31" transform="translate(672.649528 -45.485937) scale(0.7)"/>
    <use xlink:href="#Cmsy10-a1" transform="translate(719.940543 -45.485937) scale(0.7)"/>
    <use xlink:href="#Cmr10-44" transform="translate(786.611442 -45.485937) scale(0.7)"/>
    <use xlink:href="#Cmr10-64" transform="translate(843.231543 -57.665937) scale(0.49)"/>
    <use xlink:href="#Cmr10-65" transform="translate(870.435157 -57.665937) scale(0.49)"/>
    <use xlink:href="#Cmr10-67" transform="translate(892.183692 -57.665937) scale(0.49)"/>
    <use xlink:href="#Cmr10-29" transform="translate(921.251192 -45.485937) scale(0.7)"/>
    <path d="M 685.12587 87.765 
L 685.12587 92.14 
L 833.845633 92.14 
L 833.845633 87.765 
L 685.12587 87.765 
z
"/>
    <path d="M 290.257539 13.264063 
L 290.257539 19.514063 
L 948.424043 19.514063 
L 948.424043 13.264063 
L 290.257539 13.264063 
z
"/>
   </g>
  </g>
 </g>
</svg>
