<?xml version="1.0" encoding="utf-8" standalone="no"?>
<!DOCTYPE svg PUBLIC "-//W3C//DTD SVG 1.1//EN"
  "http://www.w3.org/Graphics/SVG/1.1/DTD/svg11.dtd">
<svg xmlns:xlink="http://www.w3.org/1999/xlink" width="11.35pt" height="13.525937pt" viewBox="0 0 11.35 13.525937" xmlns="http://www.w3.org/2000/svg" version="1.1">
 <metadata>
  <rdf:RDF xmlns:dc="http://purl.org/dc/elements/1.1/" xmlns:cc="http://creativecommons.org/ns#" xmlns:rdf="http://www.w3.org/1999/02/22-rdf-syntax-ns#">
   <cc:Work>
    <dc:type rdf:resource="http://purl.org/dc/dcmitype/StillImage"/>
    <dc:date>2026-05-13T02:20:16.214799</dc:date>
    <dc:format>image/svg+xml</dc:format>
    <dc:creator>
     <cc:Agent>
      <dc:title>Matplotlib v3.10.8, https://matplotlib.org/</dc:title>
     </cc:Agent>
    </dc:creator>
   </cc:Work>
  </rdf:RDF>
 </metadata>
 <defs>
  <style type="text/css">*{stroke-linejoin: round; stroke-linecap: butt}</style>
 </defs>
 <g id="figure_1">
  <g id="patch_1">
   <path d="M -0 13.525937 
L 11.35 13.525937 
L 11.35 0 
L -0 0 
L -0 13.525937 
z
" style="fill: none"/>
  </g>
  <g id="text_1">
   <!-- $D$ -->
   <g style="fill: #2d2d2c" transform="translate(1.44 9.798281) scale(0.11 -0.11)">
    <defs>
     <path id="Cmr10-44" d="M 213 0 
L 213 225 
Q 872 225 872 428 
L 872 3944 
Q 872 4147 213 4147 
L 213 4372 
L 2572 4372 
Q 3009 4372 3371 4183 
Q 3734 3994 3990 3678 
Q 4247 3363 4386 2963 
Q 4525 2563 4525 2144 
Q 4525 1738 4384 1355 
Q 4244 972 3980 664 
Q 3716 356 3355 178 
Q 2994 0 2572 0 
L 213 0 
z
M 1447 428 
Q 1447 291 1525 258 
Q 1603 225 1772 225 
L 2406 225 
Q 2734 225 3029 367 
Q 3325 509 3519 763 
Q 3722 1031 3790 1364 
Q 3859 1697 3859 2144 
Q 3859 2609 3790 2959 
Q 3722 3309 3519 3584 
Q 3328 3856 3034 4001 
Q 2741 4147 2406 4147 
L 1772 4147 
Q 1656 4147 1592 4137 
Q 1528 4128 1487 4083 
Q 1447 4038 1447 3944 
L 1447 428 
z
" transform="scale(0.015625)"/>
    </defs>
    <use xlink:href="#Cmr10-44" transform="translate(0 0.6875)"/>
   </g>
  </g>
 </g>
</svg>
